# xmcd
#
# Track frame offsets: 
#        150
#        11550
#        22702
#        35715
#        47859
#        56672
#        67910
#        79848
#        92537
#        103950
#        115711
#        127039
#        139783
#        149866
#        161583
#        172791
#        184943
#        196701
#        206795
#        220020
#        230980
#        242190
#        252163
#        263121
#        277135
#
# Disc length: 3808 seconds
#
# Revision: 0
# Processed by: cddbd v1.5.2PL0 Copyright (c) Steve Scherf et al.
# Submitted via: ExactAudioCopy v0.99pb5
#
DISCID=740ede19
DTITLE=Various Artist - Nashville Sound - CD1
DYEAR=2014
DGENRE=Country
TTITLE0=Eddy Arnold - Cattle Call (1955)
TTITLE1=Marty Robbins - Singing The Blues (1956)
TTITLE2=Bobby Helms - My Special Angel (1957)
TTITLE3=Kitty Wells and Webb Pierce - So Many Years (1957)
TTITLE4=Sonny James - You're The Reason I'm In Love (1956)
TTITLE5=Sonny James - Young Love (1956)
TTITLE6=Webb Pierce - It's My Way Of Loving You (1956)
TTITLE7=Bobby Helms - Fraulein (1957)
TTITLE8=Marving Rainwater - Gonna Find Me A Bluebird (1957)
TTITLE9=The Browns - I Heard A Bluebird Sing (1957)
TTITLE10=Marty Robbins - A white Sport Coat (And A Pink Carnation) (19
TTITLE10=57)
TTITLE11=Jim Reeves - Four Walls (1957)
TTITLE12=Jimmy C. Newman - A Fallen Star (1957)
TTITLE13=Hank Snow - Tangled Mind (1957)
TTITLE14=Don Gibson - Oh Lonesome Me (1958)
TTITLE15=Don Gibson - I Can't Stop Loving You (1958)
TTITLE16=Marvin Rainwater - Whole Lotta Woman (1958)
TTITLE17=Floyd Cramer - Flip, Flop And Bop (1958)
TTITLE18=Ray Price - City Lights (1958)
TTITLE19=Charlie Walker - Pick Me Up On Your Way Down (1958)
TTITLE20=Stonewall Jackson - Waterloo (1959)
TTITLE21=Sonny James - Talk Of The School (1959)
TTITLE22=Charlie Walker - I'll Catch You When You Fall (1959)
TTITLE23=Eddy Arnold - Tennessee Stud (1959)
TTITLE24=Webb Pierce - I Ain't Never (1959)
EXTD=
EXTT0=
EXTT1=
EXTT2=
EXTT3=
EXTT4=
EXTT5=
EXTT6=
EXTT7=
EXTT8=
EXTT9=
EXTT10=
EXTT11=
EXTT12=
EXTT13=
EXTT14=
EXTT15=
EXTT16=
EXTT17=
EXTT18=
EXTT19=
EXTT20=
EXTT21=
EXTT22=
EXTT23=
EXTT24=
PLAYORDER=
